<?xml version="1.0" encoding="utf-8"?>
<!-- Generator: Adobe Illustrator 24.1.2, SVG Export Plug-In . SVG Version: 6.00 Build 0)  -->
<svg version="1.1" id="Camada_1" xmlns="http://www.w3.org/2000/svg" xmlns:xlink="http://www.w3.org/1999/xlink" x="0px" y="0px"
	 viewBox="0 0 841.89 595.28" style="enable-background:new 0 0 841.89 595.28;" xml:space="preserve">
<style type="text/css">
	.st0{fill:none;stroke:#FFFFFF;stroke-miterlimit:10;}
	.st1{fill:#9200B9;}
	.st2{font-family:'BodoniMTPosterCompressed';}
	.st3{font-size:63.1974px;}
	.st4{fill:none;stroke:url(#SVGID_1_);stroke-miterlimit:10;}
	.st5{fill:none;stroke:url(#SVGID_2_);stroke-miterlimit:10;}
</style>
<line class="st0" x1="1134.06" y1="236.18" x2="1134.06" y2="236.18"/>
<text transform="matrix(1.627 0 0 1 279.7195 415.3812)" class="st1 st2 st3">vamos juntes</text>
<linearGradient id="SVGID_1_" gradientUnits="userSpaceOnUse" x1="330.99" y1="907.4296" x2="482.9524" y2="907.4296" gradientTransform="matrix(1 0 0 -1 -0.0151 1190.589)">
	<stop  offset="0" style="stop-color:#FF0000"/>
	<stop  offset="0.148" style="stop-color:#F7931E"/>
	<stop  offset="0.2955" style="stop-color:#FCEE21"/>
	<stop  offset="0.452" style="stop-color:#8CC63F"/>
	<stop  offset="0.6218" style="stop-color:#00FFFF"/>
	<stop  offset="0.7872" style="stop-color:#0000FF"/>
	<stop  offset="0.9168" style="stop-color:#93278F"/>
</linearGradient>
<path class="st4" d="M482.58,305.7c-3.75-3.77-6.71-6.77-8.51-8.6c-11.58-11.83-18.99-19.26-27.14-29.8
	c-8.15-10.54-14.14-20.86-17.38-24.29s-5.16-5.38-7.18-5.92c-2.05-0.53-0.65,3.44,0.2,5.59c0.86,2.15,11.67,22.68,11.89,23.97
	c0.23,1.29-1.19,7.2-7.41,3.11s-21.78-15.19-26.73-18.4c-4.93-3.23-18.13-12.81-28.12-18.95c-9.99-6.14-15.35-7.65-16.84-8.29
	c-1.49-0.65-4.97,0.65-3.48,3.25c1.49,2.6,0.94,1.64,5.44,5.73c4.5,4.09,28.39,18.46,29.68,21.04c1.29,2.58,0.04,4.67-8.02,0.49
	c-8.06-4.18-19.14-12.03-23.97-14.72s-8.39-4.97-11.4-6.47c-2.99-1.49-8.96-2.21-7.61,1.43c1.33,3.58,1.92,3.85,6.75,8.25
	c4.83,4.42,16.41,11.09,20.28,13.9c3.87,2.8,11.81,6.67,15.02,9.05s5.4,9.72-3.87,3.64c-9.23-6.04-16.21-10.44-19.53-12.71
	c-3.34-2.25-7.08-4.52-10.72-6.67s-8.37-4.75-10.52-3.66c-2.15,1.08-2.42,1.84-1.29,3.44c2.48,3.5,2.68,3.54,8.04,8.06
	c5.36,4.52,18.67,13.14,23.72,16.25c5.06,3.11,9.33,5.06,11.28,7.2c1.92,2.15,2.68,7.84-3.13,5.26c-5.79-2.58-15.68-6.9-19.55-8.84
	c-3.87-1.94-9.33-5.28-12.24-6.67c-2.91-1.39-5.46-3.99-5.59-0.86c-0.1,3.11,3.44,6.24,8.37,9.89s10.95,6.47,19.53,11.85
	c8.6,5.38,25.11,13.37,32.42,18.09c7.31,4.73,19.96,11.2,27.26,16.15c5.28,3.58,14.57,9.17,23.54,15.98"/>
<linearGradient id="SVGID_2_" gradientUnits="userSpaceOnUse" x1="347.9987" y1="1000.0088" x2="499.1017" y2="1000.0088" gradientTransform="matrix(1 0 0 -1 -0.0151 1190.589)">
	<stop  offset="0" style="stop-color:#FF0000"/>
	<stop  offset="0.148" style="stop-color:#F7931E"/>
	<stop  offset="0.2955" style="stop-color:#FCEE21"/>
	<stop  offset="0.452" style="stop-color:#8CC63F"/>
	<stop  offset="0.6218" style="stop-color:#00FFFF"/>
	<stop  offset="0.7872" style="stop-color:#0000FF"/>
	<stop  offset="0.9168" style="stop-color:#93278F"/>
</linearGradient>
<path class="st5" d="M348.34,169.3c3.36,3.38,6,6.06,7.65,7.74c11.58,11.83,18.99,19.26,27.14,29.8s14.14,20.86,17.38,24.29
	c3.21,3.44,5.16,5.38,7.18,5.92c2.05,0.53,0.65-3.44-0.2-5.59c-0.86-2.15-11.67-22.68-11.89-23.97c-0.2-1.29,1.19-7.2,7.41-3.11
	s21.78,15.19,26.73,18.4c4.93,3.23,18.13,12.81,28.12,18.95c9.99,6.14,15.35,7.65,16.84,8.29c1.49,0.65,4.97-0.65,3.48-3.25
	c-1.49-2.58-0.94-1.64-5.44-5.73c-4.5-4.09-28.39-18.46-29.68-21.04c-1.29-2.58-0.04-4.67,8.02-0.49
	c8.06,4.18,19.14,12.03,23.97,14.72s8.39,4.97,11.4,6.47c2.99,1.49,8.96,2.21,7.61-1.43c-1.33-3.58-1.92-3.85-6.75-8.25
	c-4.83-4.42-16.41-11.09-20.28-13.9c-3.87-2.8-11.81-6.67-15.02-9.05c-3.21-2.37-5.4-9.72,3.87-3.64
	c9.23,6.04,16.21,10.44,19.53,12.71c3.34,2.25,7.08,4.52,10.72,6.67s8.37,4.75,10.52,3.66c2.15-1.06,2.42-1.84,1.29-3.44
	c-2.48-3.5-2.68-3.54-8.04-8.06c-5.36-4.52-18.67-13.14-23.72-16.25c-5.04-3.13-9.33-5.06-11.28-7.2c-1.92-2.15-2.68-7.84,3.13-5.26
	c5.79,2.58,15.68,6.9,19.55,8.84c3.87,1.94,9.33,5.28,12.24,6.67c2.91,1.39,5.46,3.99,5.59,0.86c0.1-3.11-3.44-6.24-8.37-9.89
	c-4.93-3.64-10.95-6.47-19.53-11.85s-25.11-13.37-32.42-18.09s-19.96-11.2-27.26-16.15c-5.46-3.7-15.29-9.62-24.56-16.78"/>
</svg>
